<mxfile host="app.diagrams.net" agent="Mozilla/5.0 (Windows NT 10.0; Win64; x64) AppleWebKit/537.36 (KHTML, like Gecko) Chrome/137.0.0.0 Safari/537.36" version="27.1.6">
  <diagram name="Page-1" id="A5uPFs-p_Xv_ywaP8v3g">
    <mxGraphModel dx="2431" dy="1338" grid="1" gridSize="10" guides="1" tooltips="1" connect="1" arrows="1" fold="1" page="1" pageScale="1" pageWidth="827" pageHeight="1169" math="0" shadow="0">
      <root>
        <mxCell id="0" />
        <mxCell id="1" parent="0" />
        <mxCell id="IQUOY1fSXVq46zqmivwO-1" style="edgeStyle=orthogonalEdgeStyle;rounded=0;orthogonalLoop=1;jettySize=auto;html=1;exitX=0.5;exitY=1;exitDx=0;exitDy=0;entryX=0.5;entryY=0;entryDx=0;entryDy=0;" edge="1" parent="1" source="IQUOY1fSXVq46zqmivwO-2" target="IQUOY1fSXVq46zqmivwO-8">
          <mxGeometry relative="1" as="geometry" />
        </mxCell>
        <mxCell id="IQUOY1fSXVq46zqmivwO-2" value="" style="ellipse;whiteSpace=wrap;html=1;aspect=fixed;" vertex="1" parent="1">
          <mxGeometry x="410" y="70" width="80" height="80" as="geometry" />
        </mxCell>
        <mxCell id="IQUOY1fSXVq46zqmivwO-3" value="Start Game" style="text;html=1;align=center;verticalAlign=middle;resizable=0;points=[];autosize=1;strokeColor=none;fillColor=none;" vertex="1" parent="1">
          <mxGeometry x="410" y="40" width="80" height="30" as="geometry" />
        </mxCell>
        <mxCell id="IQUOY1fSXVq46zqmivwO-4" style="edgeStyle=orthogonalEdgeStyle;rounded=0;orthogonalLoop=1;jettySize=auto;html=1;exitX=0.5;exitY=1;exitDx=0;exitDy=0;" edge="1" parent="1" source="IQUOY1fSXVq46zqmivwO-8">
          <mxGeometry relative="1" as="geometry">
            <mxPoint x="450" y="290" as="targetPoint" />
          </mxGeometry>
        </mxCell>
        <mxCell id="IQUOY1fSXVq46zqmivwO-5" value="Did the player press play" style="edgeLabel;html=1;align=center;verticalAlign=middle;resizable=0;points=[];" vertex="1" connectable="0" parent="IQUOY1fSXVq46zqmivwO-4">
          <mxGeometry x="-0.1288" y="-1" relative="1" as="geometry">
            <mxPoint as="offset" />
          </mxGeometry>
        </mxCell>
        <mxCell id="IQUOY1fSXVq46zqmivwO-6" style="edgeStyle=orthogonalEdgeStyle;rounded=0;orthogonalLoop=1;jettySize=auto;html=1;exitX=0;exitY=0.5;exitDx=0;exitDy=0;entryX=0.5;entryY=0;entryDx=0;entryDy=0;" edge="1" parent="1" source="IQUOY1fSXVq46zqmivwO-8" target="IQUOY1fSXVq46zqmivwO-34">
          <mxGeometry relative="1" as="geometry" />
        </mxCell>
        <mxCell id="IQUOY1fSXVq46zqmivwO-7" value="Has the player&lt;div&gt;pressed the quit button?&lt;/div&gt;" style="edgeLabel;html=1;align=center;verticalAlign=middle;resizable=0;points=[];" vertex="1" connectable="0" parent="IQUOY1fSXVq46zqmivwO-6">
          <mxGeometry x="0.8011" y="-4" relative="1" as="geometry">
            <mxPoint as="offset" />
          </mxGeometry>
        </mxCell>
        <mxCell id="IQUOY1fSXVq46zqmivwO-8" value="Main Menu" style="rounded=0;whiteSpace=wrap;html=1;" vertex="1" parent="1">
          <mxGeometry x="390" y="180" width="120" height="60" as="geometry" />
        </mxCell>
        <mxCell id="IQUOY1fSXVq46zqmivwO-39" style="edgeStyle=orthogonalEdgeStyle;rounded=0;orthogonalLoop=1;jettySize=auto;html=1;exitX=0.5;exitY=1;exitDx=0;exitDy=0;entryX=0.5;entryY=0;entryDx=0;entryDy=0;" edge="1" parent="1" source="IQUOY1fSXVq46zqmivwO-11" target="IQUOY1fSXVq46zqmivwO-16">
          <mxGeometry relative="1" as="geometry" />
        </mxCell>
        <mxCell id="IQUOY1fSXVq46zqmivwO-40" value="Yes" style="edgeLabel;html=1;align=center;verticalAlign=middle;resizable=0;points=[];" vertex="1" connectable="0" parent="IQUOY1fSXVq46zqmivwO-39">
          <mxGeometry x="-0.2854" y="-1" relative="1" as="geometry">
            <mxPoint as="offset" />
          </mxGeometry>
        </mxCell>
        <mxCell id="IQUOY1fSXVq46zqmivwO-11" value="" style="rhombus;whiteSpace=wrap;html=1;" vertex="1" parent="1">
          <mxGeometry x="390" y="290" width="120" height="110" as="geometry" />
        </mxCell>
        <mxCell id="IQUOY1fSXVq46zqmivwO-12" style="edgeStyle=orthogonalEdgeStyle;rounded=0;orthogonalLoop=1;jettySize=auto;html=1;exitX=0.5;exitY=1;exitDx=0;exitDy=0;entryX=0.5;entryY=0;entryDx=0;entryDy=0;" edge="1" parent="1" source="IQUOY1fSXVq46zqmivwO-16" target="IQUOY1fSXVq46zqmivwO-23">
          <mxGeometry relative="1" as="geometry">
            <mxPoint x="554" y="580" as="targetPoint" />
          </mxGeometry>
        </mxCell>
        <mxCell id="IQUOY1fSXVq46zqmivwO-13" value="Has the player died?" style="edgeLabel;html=1;align=center;verticalAlign=middle;resizable=0;points=[];" vertex="1" connectable="0" parent="IQUOY1fSXVq46zqmivwO-12">
          <mxGeometry x="-0.0496" y="-1" relative="1" as="geometry">
            <mxPoint x="-40" y="-12" as="offset" />
          </mxGeometry>
        </mxCell>
        <mxCell id="IQUOY1fSXVq46zqmivwO-50" style="edgeStyle=orthogonalEdgeStyle;rounded=0;orthogonalLoop=1;jettySize=auto;html=1;exitX=1;exitY=1;exitDx=0;exitDy=0;entryX=0.5;entryY=1;entryDx=0;entryDy=0;" edge="1" parent="1" source="IQUOY1fSXVq46zqmivwO-16" target="IQUOY1fSXVq46zqmivwO-34">
          <mxGeometry relative="1" as="geometry">
            <Array as="points">
              <mxPoint x="614" y="610" />
              <mxPoint x="230" y="610" />
            </Array>
          </mxGeometry>
        </mxCell>
        <mxCell id="IQUOY1fSXVq46zqmivwO-16" value="Level (Map 1)" style="rounded=0;whiteSpace=wrap;html=1;" vertex="1" parent="1">
          <mxGeometry x="494" y="470" width="120" height="60" as="geometry" />
        </mxCell>
        <mxCell id="IQUOY1fSXVq46zqmivwO-17" style="edgeStyle=orthogonalEdgeStyle;rounded=0;orthogonalLoop=1;jettySize=auto;html=1;exitX=1;exitY=0.5;exitDx=0;exitDy=0;entryX=0.5;entryY=1;entryDx=0;entryDy=0;" edge="1" parent="1" source="IQUOY1fSXVq46zqmivwO-23" target="IQUOY1fSXVq46zqmivwO-28">
          <mxGeometry relative="1" as="geometry" />
        </mxCell>
        <mxCell id="IQUOY1fSXVq46zqmivwO-18" value="Yes" style="edgeLabel;html=1;align=center;verticalAlign=middle;resizable=0;points=[];" vertex="1" connectable="0" parent="IQUOY1fSXVq46zqmivwO-17">
          <mxGeometry x="-0.4703" y="1" relative="1" as="geometry">
            <mxPoint as="offset" />
          </mxGeometry>
        </mxCell>
        <mxCell id="IQUOY1fSXVq46zqmivwO-19" value="Does the player have&lt;div&gt;any lives left?&lt;/div&gt;" style="edgeLabel;html=1;align=center;verticalAlign=middle;resizable=0;points=[];" vertex="1" connectable="0" parent="IQUOY1fSXVq46zqmivwO-17">
          <mxGeometry x="0.7405" y="1" relative="1" as="geometry">
            <mxPoint as="offset" />
          </mxGeometry>
        </mxCell>
        <mxCell id="IQUOY1fSXVq46zqmivwO-20" style="edgeStyle=orthogonalEdgeStyle;rounded=0;orthogonalLoop=1;jettySize=auto;html=1;exitX=0.5;exitY=1;exitDx=0;exitDy=0;" edge="1" parent="1" source="IQUOY1fSXVq46zqmivwO-23">
          <mxGeometry relative="1" as="geometry">
            <mxPoint x="480" y="815.83" as="targetPoint" />
          </mxGeometry>
        </mxCell>
        <mxCell id="IQUOY1fSXVq46zqmivwO-21" value="No" style="edgeLabel;html=1;align=center;verticalAlign=middle;resizable=0;points=[];" vertex="1" connectable="0" parent="IQUOY1fSXVq46zqmivwO-20">
          <mxGeometry x="-0.1288" y="-1" relative="1" as="geometry">
            <mxPoint x="1" y="-28" as="offset" />
          </mxGeometry>
        </mxCell>
        <mxCell id="IQUOY1fSXVq46zqmivwO-22" value="Has the player completed&lt;div&gt;the level?&lt;/div&gt;" style="edgeLabel;html=1;align=center;verticalAlign=middle;resizable=0;points=[];" vertex="1" connectable="0" parent="IQUOY1fSXVq46zqmivwO-20">
          <mxGeometry x="0.4567" y="2" relative="1" as="geometry">
            <mxPoint as="offset" />
          </mxGeometry>
        </mxCell>
        <mxCell id="IQUOY1fSXVq46zqmivwO-23" value="" style="rhombus;whiteSpace=wrap;html=1;" vertex="1" parent="1">
          <mxGeometry x="420" y="595.83" width="120" height="110" as="geometry" />
        </mxCell>
        <mxCell id="IQUOY1fSXVq46zqmivwO-24" style="edgeStyle=orthogonalEdgeStyle;rounded=0;orthogonalLoop=1;jettySize=auto;html=1;exitX=0;exitY=0.5;exitDx=0;exitDy=0;entryX=1;entryY=0.5;entryDx=0;entryDy=0;" edge="1" parent="1" source="IQUOY1fSXVq46zqmivwO-28" target="IQUOY1fSXVq46zqmivwO-16">
          <mxGeometry relative="1" as="geometry" />
        </mxCell>
        <mxCell id="IQUOY1fSXVq46zqmivwO-25" value="Yes" style="edgeLabel;html=1;align=center;verticalAlign=middle;resizable=0;points=[];" vertex="1" connectable="0" parent="IQUOY1fSXVq46zqmivwO-24">
          <mxGeometry x="-0.08" relative="1" as="geometry">
            <mxPoint as="offset" />
          </mxGeometry>
        </mxCell>
        <mxCell id="IQUOY1fSXVq46zqmivwO-26" style="edgeStyle=orthogonalEdgeStyle;rounded=0;orthogonalLoop=1;jettySize=auto;html=1;exitX=0.5;exitY=0;exitDx=0;exitDy=0;entryX=1;entryY=0.5;entryDx=0;entryDy=0;" edge="1" parent="1" source="IQUOY1fSXVq46zqmivwO-28" target="IQUOY1fSXVq46zqmivwO-8">
          <mxGeometry relative="1" as="geometry">
            <Array as="points">
              <mxPoint x="709" y="445" />
              <mxPoint x="710" y="445" />
              <mxPoint x="710" y="210" />
            </Array>
          </mxGeometry>
        </mxCell>
        <mxCell id="IQUOY1fSXVq46zqmivwO-27" value="No" style="edgeLabel;html=1;align=center;verticalAlign=middle;resizable=0;points=[];" vertex="1" connectable="0" parent="IQUOY1fSXVq46zqmivwO-26">
          <mxGeometry x="-0.7176" y="1" relative="1" as="geometry">
            <mxPoint as="offset" />
          </mxGeometry>
        </mxCell>
        <mxCell id="IQUOY1fSXVq46zqmivwO-28" value="" style="rhombus;whiteSpace=wrap;html=1;" vertex="1" parent="1">
          <mxGeometry x="664" y="455" width="90" height="90" as="geometry" />
        </mxCell>
        <mxCell id="IQUOY1fSXVq46zqmivwO-44" style="edgeStyle=orthogonalEdgeStyle;rounded=0;orthogonalLoop=1;jettySize=auto;html=1;exitX=0.5;exitY=1;exitDx=0;exitDy=0;entryX=0.5;entryY=0;entryDx=0;entryDy=0;" edge="1" parent="1" source="IQUOY1fSXVq46zqmivwO-31" target="IQUOY1fSXVq46zqmivwO-43">
          <mxGeometry relative="1" as="geometry" />
        </mxCell>
        <mxCell id="IQUOY1fSXVq46zqmivwO-45" value="Has the player just completed level 1?" style="edgeLabel;html=1;align=center;verticalAlign=middle;resizable=0;points=[];" vertex="1" connectable="0" parent="IQUOY1fSXVq46zqmivwO-44">
          <mxGeometry x="-0.2882" relative="1" as="geometry">
            <mxPoint as="offset" />
          </mxGeometry>
        </mxCell>
        <mxCell id="IQUOY1fSXVq46zqmivwO-31" value="" style="rhombus;whiteSpace=wrap;html=1;" vertex="1" parent="1">
          <mxGeometry x="420" y="815.83" width="120" height="110" as="geometry" />
        </mxCell>
        <mxCell id="IQUOY1fSXVq46zqmivwO-32" style="edgeStyle=orthogonalEdgeStyle;rounded=0;orthogonalLoop=1;jettySize=auto;html=1;exitX=0;exitY=0.5;exitDx=0;exitDy=0;entryX=1;entryY=0.5;entryDx=0;entryDy=0;" edge="1" parent="1" source="IQUOY1fSXVq46zqmivwO-34" target="IQUOY1fSXVq46zqmivwO-36">
          <mxGeometry relative="1" as="geometry" />
        </mxCell>
        <mxCell id="IQUOY1fSXVq46zqmivwO-33" value="Yes" style="edgeLabel;html=1;align=center;verticalAlign=middle;resizable=0;points=[];" vertex="1" connectable="0" parent="IQUOY1fSXVq46zqmivwO-32">
          <mxGeometry x="-0.1476" y="-1" relative="1" as="geometry">
            <mxPoint as="offset" />
          </mxGeometry>
        </mxCell>
        <mxCell id="IQUOY1fSXVq46zqmivwO-34" value="" style="rhombus;whiteSpace=wrap;html=1;" vertex="1" parent="1">
          <mxGeometry x="180" y="445" width="100" height="95" as="geometry" />
        </mxCell>
        <mxCell id="IQUOY1fSXVq46zqmivwO-35" style="edgeStyle=orthogonalEdgeStyle;rounded=0;orthogonalLoop=1;jettySize=auto;html=1;exitX=1;exitY=0.5;exitDx=0;exitDy=0;entryX=1;entryY=0.5;entryDx=0;entryDy=0;" edge="1" parent="1" source="IQUOY1fSXVq46zqmivwO-36" target="IQUOY1fSXVq46zqmivwO-37">
          <mxGeometry relative="1" as="geometry" />
        </mxCell>
        <mxCell id="IQUOY1fSXVq46zqmivwO-36" value="" style="ellipse;whiteSpace=wrap;html=1;aspect=fixed;" vertex="1" parent="1">
          <mxGeometry x="40" y="452.5" width="80" height="80" as="geometry" />
        </mxCell>
        <mxCell id="IQUOY1fSXVq46zqmivwO-37" value="" style="ellipse;whiteSpace=wrap;html=1;aspect=fixed;fillStyle=solid;fillColor=#000000;" vertex="1" parent="1">
          <mxGeometry x="55" y="467.5" width="50" height="50" as="geometry" />
        </mxCell>
        <mxCell id="IQUOY1fSXVq46zqmivwO-38" value="Quit Game" style="text;html=1;align=center;verticalAlign=middle;resizable=0;points=[];autosize=1;strokeColor=none;fillColor=none;" vertex="1" parent="1">
          <mxGeometry x="40" y="418" width="80" height="30" as="geometry" />
        </mxCell>
        <mxCell id="IQUOY1fSXVq46zqmivwO-42" style="edgeStyle=orthogonalEdgeStyle;rounded=0;orthogonalLoop=1;jettySize=auto;html=1;exitX=0.5;exitY=1;exitDx=0;exitDy=0;entryX=0.5;entryY=0;entryDx=0;entryDy=0;" edge="1" parent="1" source="IQUOY1fSXVq46zqmivwO-41" target="IQUOY1fSXVq46zqmivwO-23">
          <mxGeometry relative="1" as="geometry" />
        </mxCell>
        <mxCell id="IQUOY1fSXVq46zqmivwO-51" style="edgeStyle=orthogonalEdgeStyle;rounded=0;orthogonalLoop=1;jettySize=auto;html=1;exitX=0;exitY=1;exitDx=0;exitDy=0;entryX=0.5;entryY=1;entryDx=0;entryDy=0;" edge="1" parent="1" source="IQUOY1fSXVq46zqmivwO-41" target="IQUOY1fSXVq46zqmivwO-34">
          <mxGeometry relative="1" as="geometry">
            <Array as="points">
              <mxPoint x="340" y="610" />
              <mxPoint x="230" y="610" />
            </Array>
          </mxGeometry>
        </mxCell>
        <mxCell id="IQUOY1fSXVq46zqmivwO-52" value="Has the player pressed&lt;div&gt;the quit button?&lt;/div&gt;" style="edgeLabel;html=1;align=center;verticalAlign=middle;resizable=0;points=[];" vertex="1" connectable="0" parent="IQUOY1fSXVq46zqmivwO-51">
          <mxGeometry x="0.7282" relative="1" as="geometry">
            <mxPoint as="offset" />
          </mxGeometry>
        </mxCell>
        <mxCell id="IQUOY1fSXVq46zqmivwO-41" value="Level (Map 2)" style="rounded=0;whiteSpace=wrap;html=1;" vertex="1" parent="1">
          <mxGeometry x="340" y="470" width="120" height="60" as="geometry" />
        </mxCell>
        <mxCell id="IQUOY1fSXVq46zqmivwO-46" style="edgeStyle=orthogonalEdgeStyle;rounded=0;orthogonalLoop=1;jettySize=auto;html=1;exitX=1;exitY=0.5;exitDx=0;exitDy=0;entryX=0.75;entryY=1;entryDx=0;entryDy=0;" edge="1" parent="1" source="IQUOY1fSXVq46zqmivwO-43" target="IQUOY1fSXVq46zqmivwO-16">
          <mxGeometry relative="1" as="geometry" />
        </mxCell>
        <mxCell id="IQUOY1fSXVq46zqmivwO-47" value="No" style="edgeLabel;html=1;align=center;verticalAlign=middle;resizable=0;points=[];" vertex="1" connectable="0" parent="IQUOY1fSXVq46zqmivwO-46">
          <mxGeometry x="-0.9207" y="-1" relative="1" as="geometry">
            <mxPoint as="offset" />
          </mxGeometry>
        </mxCell>
        <mxCell id="IQUOY1fSXVq46zqmivwO-48" style="edgeStyle=orthogonalEdgeStyle;rounded=0;orthogonalLoop=1;jettySize=auto;html=1;exitX=0;exitY=0.5;exitDx=0;exitDy=0;entryX=0.25;entryY=1;entryDx=0;entryDy=0;" edge="1" parent="1" source="IQUOY1fSXVq46zqmivwO-43" target="IQUOY1fSXVq46zqmivwO-41">
          <mxGeometry relative="1" as="geometry" />
        </mxCell>
        <mxCell id="IQUOY1fSXVq46zqmivwO-49" value="Yes" style="edgeLabel;html=1;align=center;verticalAlign=middle;resizable=0;points=[];" vertex="1" connectable="0" parent="IQUOY1fSXVq46zqmivwO-48">
          <mxGeometry x="-0.9369" y="2" relative="1" as="geometry">
            <mxPoint as="offset" />
          </mxGeometry>
        </mxCell>
        <mxCell id="IQUOY1fSXVq46zqmivwO-43" value="" style="rhombus;whiteSpace=wrap;html=1;" vertex="1" parent="1">
          <mxGeometry x="420" y="990" width="120" height="110" as="geometry" />
        </mxCell>
      </root>
    </mxGraphModel>
  </diagram>
</mxfile>
